<?xml version="1.0" encoding="UTF-8"?>
<svg id="_レイヤー_2" data-name="レイヤー 2" xmlns="http://www.w3.org/2000/svg" viewBox="0 0 527.79 126.06">
  <defs>
    <style>
      .cls-1 {
        fill: #231815;
      }
    </style>
  </defs>
  <g id="_レイヤー_1-2" data-name="レイヤー 1">
    <g>
      <path class="cls-1" d="M48.04,74.81l-7.05-19.16H14.27l-7.05,19.16H2.54L25.78,13.19h4.04l22.99,61.62h-4.77ZM29.13,23.25c-.32-.86-.57-1.7-.77-2.54-.2-.72-.42-1.43-.64-2.15h-.17c-.49,1.89-.96,3.42-1.42,4.6l-10.36,28.57h23.76l-10.4-28.49Z"/>
      <path class="cls-1" d="M63.25,74.81V13.19h4.25v61.62h-4.25Z"/>
      <path class="cls-1" d="M105.62,39.38c-.29.44-1.03.83-1.96,1.08v29.94c-.05.39-2.6,1.62-4.56,1.62h-.83v-3.43h-4.46v4.12c0,.39-1.67,1.67-4.36,1.67h-.93v-38.51l5.93,2.25h3.33l2.6-2.89,5.24,4.16ZM93.81,39.53v12.89h4.46v-12.89h-4.46ZM98.27,67.21v-13.42h-4.46v13.42h4.46ZM114.44,49.72v-7.15h-8.87l-.39-1.37h9.26v-7.64l7.35.64c-.05.69-.44,1.18-1.76,1.37v5.63h3.72l2.89-3.87s3.23,2.65,5.19,4.46c-.15.54-.64.78-1.32.78h-10.49v7.15h4.95l3.04-4.07s3.43,2.74,5.44,4.65c-.15.54-.64.78-1.32.78h-27.73l-.39-1.37h10.44ZM129.04,53.99s2.99,2.4,4.7,4.07c-.1.54-.64.78-1.32.78h-6.52v13.82c0,3.87-.88,5.98-7.5,6.57-.15-1.71-.44-2.99-1.27-3.82-.83-.83-1.96-1.42-4.56-1.86v-.64s5.54.29,6.66.29c.83,0,1.08-.25,1.08-.83v-13.52h-15.87l-.39-1.37h16.27v-5.59l7.1.64c-.05.64-.54,1.03-1.52,1.18v3.77h.69l2.45-3.48ZM107.38,60.31c13.47,3.23,8.04,13.13,2.99,8.87-.2-2.94-1.81-6.27-3.43-8.57l.44-.29Z"/>
      <path class="cls-1" d="M154.63,47.76c-.2.44-.64.78-1.57.93v28.81c-.05.44-2.4,1.67-4.61,1.67h-1.08v-26.56c-2.16,2.5-4.51,4.65-7.01,6.47l-.59-.39c4.26-6.08,8.57-15.87,10.73-25.58l8.18,2.6c-.2.64-.78,1.08-1.91,1.03-1.47,3.67-3.19,6.96-5.05,9.95l2.89,1.08ZM185,73c1.81,2.84,2.06,4.26,1.27,5.1-2.16,2.3-6.27.34-8.72-1.57-7.5-6.12-10.93-15.04-12.4-25.53l-10,1.18-.54-1.32,10.34-1.23c-.64-4.95-.83-10.24-.83-15.73l7.64.93c-.1.64-.54,1.23-1.76,1.42-.1,4.31.05,8.62.49,12.74l6.32-.73,2.89-4.46s4.02,2.21,6.57,3.92c-.1.54-.59.88-1.27.98l-14.36,1.67c1.18,8.57,3.97,16.07,10.19,20.53.78.69,1.13.69,1.62-.15.83-1.27,2.2-3.92,3.14-6.08l.54.1-1.13,8.23ZM173.59,34.83c13.13.59,9.46,10.29,4.31,7.3-.74-2.45-2.84-5.29-4.7-6.96l.39-.34Z"/>
      <path class="cls-1" d="M209.13,74.77c9.11-2.16,12.53-7.16,12.53-13.39,0-6.62-4.25-10.87-10.08-10.87-.47,0-.97.04-1.44.11,1.08,1.12,2.38,2.88,2.38,4.57,0,1.84-.36,4.21-1.19,6.41-1.62,4.57-5.65,11.12-10.04,11.12-2.88,0-5.54-4.43-5.54-9.11,0-3.35,1.66-7.63,5.29-10.69,2.92-2.52,6.55-3.85,10.94-3.85,8.28,0,14.15,5.76,14.15,13.25,0,6.8-4.75,12.63-16.85,13.14l-.14-.68ZM208.52,50.94c-2.34.65-4.61,1.98-6.33,3.82-2.09,2.3-3.24,4.75-3.24,7.7s1.22,5.51,2.74,5.51c2.02,0,5.18-4.97,6.33-7.45.94-2.09,1.62-4.57,1.62-6.48,0-1.19-.5-2.27-1.12-3.1Z"/>
      <path class="cls-1" d="M252.45,39.63s2.99,2.35,4.8,4.02c-.15.54-.64.74-1.32.74h-20.58l-.39-1.37h14.94l2.55-3.38ZM247.64,49.38l2.55-3.33s2.84,2.3,4.61,3.92c-.1.54-.64.78-1.27.78h-15.97l-.39-1.37h10.49ZM237.55,57.07l-.39-1.32h10.49l2.55-3.28s2.84,2.25,4.61,3.87c-.1.49-.64.74-1.27.74h-15.97ZM250.44,59.57l5.29,4.07c-.29.39-1.03.83-2.01,1.03v11.86c-.05.34-2.65,1.52-4.46,1.52h-.88v-2.84h-5.98v2.3c0,.49-2.25,1.67-4.41,1.67h-.74v-18.96l5.34,2.16h5.29l2.55-2.79ZM237.7,38.21l-.39-1.42h10l2.55-3.33s2.94,2.3,4.7,3.97c-.15.54-.64.78-1.32.78h-15.53ZM248.38,73.78v-10.04h-5.98v10.04h5.98ZM276.4,46.19s3.33,2.89,5.19,4.8c-.1.54-.64.78-1.32.78h-9.6v25.33c0,.69-2.5,2.06-4.7,2.06h-1.08v-27.39h-9.01l-.39-1.42h9.41v-17l7.79.78c-.15.78-.54,1.32-2.01,1.52v14.7h2.84l2.89-4.16Z"/>
      <path class="cls-1" d="M327.99,64.13s3.33,2.65,5.39,4.46c-.1.54-.64.78-1.37.78h-11.91v8.62c0,.39-2.45,1.27-4.46,1.27h-.98v-9.9h-8.28c-1.22,4.9-4.65,8.08-18.47,9.9l-.34-.88c9.31-2.25,12.4-4.9,13.47-9.02h-12.64l-.39-1.37h13.28c.24-1.42.29-2.94.34-4.7l7.06.78c-.15.64-.59,1.13-1.67,1.22-.1.93-.2,1.86-.34,2.69h7.99v-4.36l5.34.44v-1.47h-18.67v.74c0,.54-2.35,1.76-4.66,1.76h-.83v-21.17l5.88,2.3h17.79l.64-.64c-.34-.15-.74-.34-1.08-.64-.15-1.67-.98-3.53-1.81-4.85h-1.42c-2.11,2.25-4.56,4.02-6.96,5.19l-.59-.49c1.03-1.27,2.01-2.89,2.94-4.7h-8.08c5.49,2.74,1.27,7.74-1.96,4.75.05-1.52-.54-3.38-1.27-4.75h-2.25c-2.7,3.63-6.08,6.22-9.6,7.99l-.59-.49c3.09-3.38,5.98-8.72,7.5-14.65l6.96,2.5c-.2.59-.83.98-1.96.93-.44.78-.88,1.57-1.32,2.3h6.71l2.55-3.43s2.3,1.86,4.02,3.43c.78-1.76,1.47-3.72,2.01-5.68l6.91,2.06c-.15.59-.78,1.03-1.86.98-.59.93-1.23,1.81-1.86,2.65h7.45l2.84-3.63s3.23,2.5,5.19,4.26c-.15.54-.64.78-1.37.78h-10.19c2.89,1.22,3.28,3.18,2.45,4.46l3.97,2.94c-.29.34-.93.73-1.86.93v14.5c-.05.29-2.16,1.13-3.87,1.32-.1.59-.49,1.08-1.62,1.23v2.5h4.9l2.99-3.87ZM301.33,47.67v3.58h18.67v-3.58h-18.67ZM320,52.61h-18.67v3.63h18.67v-3.63ZM320,61.19v-3.63h-18.67v3.63h18.67Z"/>
      <path class="cls-1" d="M385.01,73.63c1.57,2.6,1.81,3.92,1.13,4.65-1.96,2.01-5.44.15-7.59-1.71-1.32-1.13-2.5-2.4-3.53-3.77-3.58,2.84-7.74,4.75-12.25,5.93l-.39-.69c3.92-1.96,7.54-4.75,10.58-8.43-1.47-2.69-2.6-5.68-3.38-8.97h-4.61c-.1,1.32-.29,2.65-.54,3.97,9.26,2.16,5,9.46,1.13,6.27-.05-1.47-.69-3.09-1.57-4.41-1.27,4.65-4.07,9.16-10.24,12.59l-.64-.69c5.63-5.63,6.22-11.96,6.32-17.74h-2.84c-.78.93-2.16,1.08-3.43-.15,0-2.35-.98-5.05-2.06-7.15v24.2c0,.49-2.21,1.57-4.16,1.57h-1.08v-19.25c-1.67,2.89-3.67,5.49-6.03,7.84l-.64-.54c3.19-5.63,5-13.18,5.93-20.43h-4.51l-.39-1.42h5.63v-12.1l7.06.73c-.15.69-.54,1.18-1.81,1.37v10h.1l2.3-3.67s2.6,2.55,3.97,4.31c-.15.54-.54.78-1.23.78h-5.14v5.24c5.05,2.25,6.42,5.29,6.08,7.3h12.05c-.29-1.27-.54-2.6-.74-3.97-.83.73-2.11.83-3.28-.25,0-.73-.15-1.52-.29-2.3-1.47.78-3.43,1.86-5.93,3.14-.25.59-.74.88-1.22.98l-2.45-4.9c.83,0,2.06-.1,3.58-.2.64-1.57,1.37-3.48,2.11-5.54-.74.39-1.71.39-2.74-.34-.25-1.86-1.57-4.21-2.84-5.59l.49-.29c.93.15,1.76.39,2.5.64.44-2.11.98-4.75,1.42-7.1l5.93,2.06c-.25.59-.88,1.03-1.86.98-1.22,1.57-2.6,3.28-3.92,4.75,1.13.69,1.71,1.47,2.01,2.21.39-1.23.78-2.4,1.18-3.58l4.17,1.67c-.05-2.69-.1-5.44-.1-8.28l6.91.83c-.05.64-.54,1.18-1.76,1.37-.05,1.57-.05,3.14-.05,4.65l.54-.29c.78.15,1.42.34,2.01.54.49-1.96,1.03-4.61,1.52-6.96l6.03,2.21c-.25.59-.83.98-1.86.93-1.32,1.52-2.79,3.14-4.21,4.51,1.13.64,1.81,1.42,2.11,2.16.54-1.37,1.08-2.79,1.57-4.12l5.54,2.4c-.25.54-.83.93-1.86.78-1.86,2.55-4.02,5.24-6.03,7.55,1.23-.05,2.65-.1,4.02-.2-.34-1.18-.78-2.3-1.18-3.18l.59-.25c8.67,4.21,4.31,10.53,1.23,7.4,0-.78-.1-1.67-.25-2.55-1.57.78-3.53,1.71-5.98,2.84v.05c8.08.1,4.65,6.42,1.13,4.07-.15-1.23-.93-2.5-1.76-3.38-.2.15-.44.25-.69.29l-1.86-4.95c.69,0,1.62,0,2.74-.05.49-1.13,1.03-2.35,1.57-3.67-.69.25-1.52.1-2.35-.54-.1-1.91-1.32-4.26-2.55-5.59.05,6.96.49,13.52,1.86,19.06h5.93l2.3-3.23s2.65,2.25,4.21,3.82c-.15.54-.64.78-1.27.78h-7.01l5.93,2.79c-.25.59-.78.78-2.01.64-1.03,1.86-2.2,3.58-3.48,5.1.74.93,1.62,1.76,2.55,2.5.64.64.98.64,1.47-.25.69-1.27,1.81-3.82,2.6-5.93l.59.1-.98,8.04ZM364.53,51.39c-.34-1.13-.78-2.21-1.22-3.09-.93,1.23-1.86,2.35-2.79,3.38l4.02-.29ZM363.74,47.86c1.96.78,3.28,1.71,4.12,2.65-.2-2.35-.34-4.8-.49-7.3h-.25c-1.08,1.52-2.3,3.14-3.48,4.7l.1-.05ZM374.57,60.65c.44,1.47.93,2.89,1.57,4.21.74-1.32,1.37-2.74,1.96-4.21h-3.53Z"/>
      <path class="cls-1" d="M413.02,51.52c1.26.07,2.41.14,3.31.61,1.44.68,2.88,2.34,2.88,3.53,0,.86-.65,1.26-2.38,1.84-2.74.83-6.91,2.59-9.86,4.32-3.2,1.91-6.01,4.43-6.01,7.09,0,2.16,2.09,3.28,6.48,3.28,4.97,0,7.85-1.12,8.6-1.12,2.12,0,4.03.5,4.03,2.23,0,.76-.72,1.58-1.73,1.98-1.51.54-5,1.01-9.25,1.01-6.23,0-10.69-2.09-10.69-6.41,0-4.07,3.71-7.7,6.55-9.83-.97-.58-1.69-1.4-2.16-2.41-.79-1.69-1.3-5.15-1.58-7.38-.14-.79-.43-1.22-1.15-1.69-.58-.36-1.37-.68-2.09-.97v-.54c.94-.36,1.91-.68,2.99-.68,2.41,0,4.61,1.69,4.61,2.84,0,.76-.22,1.55-.22,2.48,0,1.4.18,3.35.68,4.54.36.9.86,1.55,1.58,2.02,2.52-1.55,5.4-3.13,6.26-3.67.43-.25.54-.58.36-1.04-.25-.65-.94-1.15-1.48-1.58l.25-.43Z"/>
      <path class="cls-1" d="M453.97,34.73c-.1.73-.54,1.22-1.81,1.37,1.03,18.86,5.63,30.28,22.39,36.45l-.1.59c-2.94.54-4.8,2.55-5.44,5.73-12.35-6.57-16.02-18.08-17.25-33.71-.88,12.59-4.41,25.13-22.83,33.95l-.54-.69c17.93-13.08,17.44-28.91,17.49-44.49l8.08.78Z"/>
      <path class="cls-1" d="M488.49,50.51v26.51c0,.74-2.11,2.16-4.65,2.16h-.93v-44.73l5.78,2.5h6.71l2.4-2.65,5.1,3.87c-.29.34-.88.78-1.76.93v12.79c-.05.34-2.69,1.32-4.36,1.32h-.88v-2.69h-7.4ZM488.49,38.36v4.65h7.4v-4.65h-7.4ZM495.88,49.13v-4.8h-7.4v4.8h7.4ZM525.53,38.26c-.34.39-.98.83-2.01.98v33.17c0,3.92-.78,6.17-7.01,6.71-.1-1.86-.34-3.23-.93-4.07-.69-.83-1.62-1.47-3.77-1.86v-.15c-.88.44-2.45.98-3.63.98h-.93v-2.84h-8.48v1.86c0,.49-2.21,1.62-4.41,1.62h-.74v-20.48l5.34,2.21h7.84l2.45-2.69,5.1,3.87c-.29.34-.93.73-1.81.88v14.06c1.23.1,3.67.29,4.36.29.78,0,.98-.39.98-1.03v-21.26h-7.64v.93c0,.49-2.35,1.71-4.61,1.71h-.73v-18.42l5.54,2.2h6.96l2.6-3.04,5.54,4.36ZM498.78,57.71v5.24h8.48v-5.24h-8.48ZM507.25,69.81v-5.44h-8.48v5.44h8.48ZM510.24,38.36v4.65h7.64v-4.65h-7.64ZM517.88,49.13v-4.8h-7.64v4.8h7.64Z"/>
    </g>
  </g>
</svg>